<svg enable-background="new 0 0 128 128" viewBox="0 0 128 128" xmlns="http://www.w3.org/2000/svg" xmlns:xlink="http://www.w3.org/1999/xlink"><linearGradient id="a" gradientUnits="userSpaceOnUse" x1="4" x2="124" y1="64" y2="64"><stop offset=".6333" stop-color="#424242"/><stop offset="1" stop-color="#655c5a"/></linearGradient><radialGradient id="b" cx="64.3576" cy="66.2369" gradientTransform="matrix(1 0 0 .9961 0 .2583)" gradientUnits="userSpaceOnUse" r="61.9615"><stop offset=".7992" stop-color="#655c5a" stop-opacity="0"/><stop offset=".9674" stop-color="#655c5a"/></radialGradient><radialGradient id="c" cx="65.3648" cy="56.8645" gradientUnits="userSpaceOnUse" r="57.5924"><stop offset=".6026" stop-color="#fcfcfc"/><stop offset="1" stop-color="#e3e1db"/></radialGradient><linearGradient id="d" gradientUnits="userSpaceOnUse" x1="64" x2="64" y1="71.2913" y2="35.6083"><stop offset=".2127" stop-color="#424242"/><stop offset=".8635" stop-color="#655c5a"/></linearGradient><circle cx="64" cy="64" fill="url(#a)" r="60"/><circle cx="64" cy="64" fill="url(#b)" r="60"/><path d="m123.86 67.92-17.56-17.11c-1.54-1.5-2.24-3.66-1.88-5.78l3.72-21.66c-6.16-6.69-13.82-11.96-22.44-15.31l-18.66 9.81c-1.9 1-4.17 1-6.08 0l-18.65-9.81c-8.62 3.35-16.28 8.62-22.44 15.31l3.72 21.66c.36 2.12-.34 4.28-1.88 5.78l-17.57 17.11c.53 8.28 2.75 16.09 6.3 23.12l25.54 3.71c2.13.31 3.97 1.64 4.92 3.57l12.17 24.66c3.55.65 7.2 1.01 10.93 1.01s7.39-.36 10.93-1.01l12.17-24.65c.95-1.93 2.79-3.26 4.92-3.57l25.54-3.71c3.55-7.03 5.76-14.85 6.3-23.13z" fill="url(#c)"/><path d="m49.58 76.32c-.78-.43-1.76-.14-2.18.64l-10.07 18.22s.87.3 1.57.77 1.05 1.12 1.05 1.12l10.27-18.57c.43-.78.14-1.75-.64-2.18z" fill="#424242"/><path d="m78.31 75.95c-.78.42-1.07 1.4-.64 2.18l10.34 18.93s.44-.7 1.19-1.19 1.46-.66 1.46-.66l-10.17-18.62c-.43-.77-1.4-1.06-2.18-.64z" fill="#424242"/><g fill="#4e4545"><path d="m86.86 49.37c.05.85.76 1.51 1.6 1.51h.1l16.88-1.08s-.54-.97-.79-1.72c-.24-.75-.31-1.41-.31-1.41l-15.99 1c-.87.05-1.55.81-1.49 1.7z"/><path d="m64.21 32.68c.89 0 1.61-.72 1.61-1.61v-12.71s-.95.23-1.68.26-1.53-.15-1.53-.15v12.6c0 .89.71 1.61 1.6 1.61z"/><path d="m39.48 50.97h.11c.84 0 1.55-.65 1.6-1.5.06-.89-.61-1.65-1.5-1.71l-16.11-1.17s-.02 1.12-.29 1.74c-.22.5-.87 1.37-.87 1.37z"/></g><path d="m47.49 76.64-8.43-25.96c-.4-1.24.04-2.6 1.09-3.36l22.08-16.04c1.05-.77 2.48-.77 3.53 0l22.08 16.04c1.05.77 1.49 2.12 1.09 3.36l-8.43 25.96c-.4 1.24-1.56 2.08-2.86 2.08h-27.29c-1.3 0-2.45-.84-2.86-2.08z" fill="url(#d)"/></svg>