<?xml version="1.0" encoding="iso-8859-1"?>
<!-- Generator: Adobe Illustrator 19.0.0, SVG Export Plug-In . SVG Version: 6.00 Build 0)  -->
<svg xmlns="http://www.w3.org/2000/svg" xmlns:xlink="http://www.w3.org/1999/xlink" version="1.1" id="Layer_1" x="0px" y="0px" viewBox="0 0 512.002 512.002" style="enable-background:new 0 0 512.002 512.002;" xml:space="preserve">
<path style="fill:#BAB0A8;" d="M481.319,359.558C442.093,444.764,355.955,503.917,256,503.917  c-136.92,0-247.916-110.996-247.916-247.916S119.08,8.085,256,8.085s247.916,110.996,247.916,247.916  c0,27.55-4.495,54.051-12.788,78.809"/>
<path style="fill:#AFA197;" d="M395.669,429.355c-137.995,0-249.864-111.867-249.864-249.864  c0-64.259,24.266-122.846,64.124-167.116C95.027,33.972,8.084,134.825,8.084,256.001c0,136.92,110.996,247.916,247.916,247.916  c71.099,0,135.199-29.939,180.405-77.887C423.147,428.206,409.543,429.355,395.669,429.355z"/>
<path style="fill:#D6CCC5;" d="M491.763,332.873c7.888-24.201,12.153-50.038,12.153-76.872c0-71.89-30.611-136.622-79.497-181.906  c-48.638,45.264-79.073,109.829-79.073,181.512c0,71.89,30.611,136.622,79.497,181.906c23.247-21.633,42.333-47.675,55.93-76.798"/>
<path style="fill:#AFA197;" d="M166.654,255.608c0,71.89-30.611,136.622-79.497,181.906C38.52,392.248,8.084,327.684,8.084,256.001  c0-71.89,30.611-136.622,79.497-181.905C136.219,119.36,166.654,183.924,166.654,255.608z"/>
<path style="fill:#231F20;" d="M499.73,334.486c0.355-1.104,0.705-2.208,1.044-3.316c0.164-0.535,0.323-1.071,0.484-1.607  c0.321-1.074,0.639-2.148,0.946-3.226c0.163-0.572,0.321-1.146,0.481-1.72c0.291-1.047,0.578-2.094,0.855-3.144  c0.161-0.607,0.314-1.215,0.47-1.823c0.262-1.025,0.523-2.05,0.772-3.078c0.154-0.634,0.301-1.269,0.449-1.902  c0.236-1.009,0.472-2.017,0.696-3.028c0.146-0.656,0.284-1.315,0.424-1.973c0.212-0.995,0.425-1.989,0.624-2.986  c0.136-0.676,0.263-1.355,0.393-2.032c0.19-0.983,0.379-1.966,0.557-2.952c0.126-0.697,0.241-1.397,0.362-2.095  c0.166-0.968,0.334-1.935,0.489-2.906c0.115-0.723,0.221-1.449,0.33-2.172c0.143-0.951,0.29-1.901,0.423-2.854  c0.105-0.748,0.197-1.498,0.295-2.247c0.122-0.931,0.246-1.862,0.358-2.794c0.094-0.785,0.175-1.57,0.261-2.356  c0.099-0.902,0.203-1.802,0.292-2.706c0.082-0.822,0.15-1.648,0.223-2.472c0.078-0.87,0.162-1.739,0.231-2.61  c0.069-0.873,0.124-1.748,0.184-2.624c0.057-0.824,0.121-1.647,0.169-2.473c0.057-0.958,0.098-1.919,0.144-2.879  c0.036-0.745,0.08-1.488,0.109-2.233c0.043-1.097,0.069-2.196,0.099-3.294c0.016-0.613,0.042-1.226,0.054-1.839  c0.033-1.713,0.052-3.428,0.052-5.144c0-2.198-0.03-4.39-0.084-6.578c-0.022-0.868-0.065-1.732-0.095-2.598  c-0.046-1.311-0.086-2.623-0.152-3.93c-0.053-1.054-0.127-2.103-0.193-3.155c-0.07-1.117-0.133-2.234-0.217-3.349  c-0.083-1.102-0.185-2.2-0.282-3.299c-0.094-1.068-0.184-2.137-0.291-3.202c-0.109-1.077-0.234-2.15-0.356-3.224  c-0.125-1.104-0.249-2.209-0.388-3.31c-0.125-0.986-0.263-1.969-0.399-2.953c-0.168-1.219-0.341-2.436-0.526-3.651  c-0.128-0.836-0.265-1.671-0.401-2.505c-0.23-1.408-0.469-2.813-0.721-4.216c-0.112-0.618-0.226-1.233-0.343-1.85  c-0.318-1.693-0.653-3.382-1.006-5.067c-0.065-0.31-0.13-0.621-0.196-0.931c-7.744-36.375-23.33-70.493-45.918-100.322  c-0.06-0.08-0.122-0.158-0.182-0.239c-1.163-1.532-2.342-3.053-3.542-4.561c-0.252-0.318-0.508-0.633-0.761-0.95  c-1.036-1.29-2.083-2.572-3.145-3.845c-0.376-0.451-0.756-0.899-1.135-1.347c-0.98-1.158-1.969-2.309-2.972-3.451  c-0.433-0.494-0.869-0.985-1.306-1.476c-0.999-1.121-2.008-2.236-3.028-3.343c-0.418-0.454-0.839-0.905-1.261-1.356  c-1.095-1.172-2.203-2.334-3.323-3.487c-0.331-0.341-0.662-0.681-0.995-1.02c-0.589-0.6-1.166-1.209-1.761-1.805  c-0.69-0.69-1.395-1.359-2.091-2.042c-0.169-0.165-0.338-0.331-0.509-0.496C386.374,25.709,323.167,0.001,256,0.001  c-67.178,0-130.394,25.715-178.442,72.466c-0.153,0.149-0.305,0.299-0.458,0.447c-0.706,0.69-1.42,1.369-2.119,2.068  c-0.603,0.603-1.186,1.218-1.781,1.825c-0.319,0.326-0.637,0.652-0.955,0.979c-1.133,1.167-2.254,2.343-3.362,3.528  c-0.41,0.438-0.818,0.876-1.224,1.317c-1.032,1.119-2.052,2.245-3.062,3.379c-0.427,0.48-0.854,0.96-1.277,1.443  c-1.011,1.153-2.01,2.314-2.999,3.482c-0.371,0.439-0.743,0.877-1.111,1.319c-1.071,1.283-2.127,2.575-3.171,3.876  c-0.245,0.306-0.492,0.61-0.735,0.917c-1.209,1.521-2.399,3.054-3.571,4.598c-0.051,0.067-0.102,0.134-0.153,0.2  C28.986,131.678,13.396,165.801,5.65,202.179c-0.067,0.314-0.133,0.627-0.198,0.94c-0.351,1.682-0.686,3.366-1.004,5.057  c-0.117,0.619-0.233,1.238-0.345,1.859c-0.252,1.398-0.49,2.8-0.72,4.205c-0.137,0.838-0.275,1.676-0.403,2.515  c-0.185,1.21-0.357,2.424-0.525,3.639c-0.137,0.987-0.275,1.974-0.401,2.964c-0.139,1.099-0.263,2.201-0.388,3.303  c-0.122,1.076-0.248,2.15-0.357,3.228c-0.107,1.063-0.196,2.129-0.29,3.195c-0.097,1.103-0.2,2.204-0.283,3.31  c-0.084,1.111-0.147,2.225-0.216,3.338c-0.066,1.054-0.14,2.106-0.193,3.163c-0.066,1.307-0.106,2.619-0.152,3.93  c-0.03,0.867-0.073,1.73-0.095,2.598C0.03,251.611,0,253.803,0,256.001c0,2.194,0.029,4.382,0.084,6.567  c0.022,0.871,0.065,1.739,0.095,2.609c0.045,1.305,0.086,2.613,0.151,3.915c0.053,1.049,0.127,2.093,0.192,3.14  c0.07,1.12,0.133,2.24,0.217,3.357c0.082,1.093,0.184,2.183,0.28,3.274c0.095,1.076,0.184,2.151,0.292,3.224  c0.107,1.063,0.231,2.122,0.351,3.183c0.126,1.115,0.251,2.23,0.391,3.341c0.123,0.968,0.259,1.934,0.392,2.901  c0.17,1.235,0.344,2.469,0.531,3.699c0.124,0.81,0.257,1.617,0.389,2.425c0.233,1.43,0.474,2.859,0.731,4.282  c0.107,0.587,0.217,1.174,0.327,1.76c0.321,1.712,0.659,3.42,1.013,5.122c0.06,0.286,0.12,0.57,0.181,0.856  c8.133,38.327,24.968,74.154,49.528,105.101c0.151,0.191,0.305,0.379,0.457,0.57c1.135,1.422,2.283,2.834,3.45,4.235  c0.292,0.35,0.587,0.697,0.882,1.046c1.062,1.26,2.133,2.513,3.221,3.755c0.356,0.406,0.717,0.811,1.075,1.215  c1.067,1.203,2.143,2.398,3.235,3.585c0.349,0.378,0.701,0.755,1.052,1.132c1.149,1.233,2.309,2.458,3.485,3.672  c0.268,0.277,0.539,0.553,0.81,0.83c0.723,0.742,1.437,1.49,2.17,2.224c0.591,0.591,1.194,1.162,1.789,1.746  c0.122,0.12,0.245,0.238,0.366,0.358c48.099,47.009,111.489,72.876,178.863,72.876c49.9,0,98.261-14.365,139.855-41.544  c29.704-19.409,54.869-44.573,74.147-73.898c0.056-0.086,0.112-0.171,0.169-0.258c3.329-5.076,6.479-10.276,9.448-15.593  c0.019-0.034,0.039-0.07,0.059-0.105c3.21-5.757,6.213-11.646,8.984-17.665c1.867-4.056,0.094-8.857-3.963-10.724  c-4.055-1.867-8.857-0.092-10.724,3.962c-0.169,0.368-0.346,0.73-0.517,1.096c-0.003,0.008-0.008,0.014-0.012,0.022  c-0.743,1.59-1.502,3.17-2.277,4.74c-0.023,0.045-0.044,0.089-0.067,0.135c-0.761,1.538-1.537,3.067-2.328,4.586  c-0.024,0.045-0.046,0.091-0.07,0.136c-1.58,3.029-3.225,6.017-4.928,8.967c-0.285,0.492-0.576,0.978-0.862,1.466  c-0.487,0.83-0.978,1.659-1.475,2.482c-0.475,0.787-0.956,1.57-1.441,2.351c-0.285,0.46-0.572,0.919-0.86,1.379  c-0.617,0.979-1.236,1.956-1.867,2.925c-0.052,0.079-0.103,0.157-0.155,0.237c-9.396,14.413-20.256,27.661-32.322,39.581  c-3.422-3.381-6.721-6.869-9.919-10.436l13.535-11.358c3.421-2.869,3.867-7.969,0.997-11.389c-2.869-3.419-7.969-3.865-11.388-0.996  l-13.531,11.353c-5.282-6.758-10.179-13.786-14.692-21.04l15.128-8.734c3.867-2.232,5.191-7.177,2.959-11.043  c-2.232-3.867-7.177-5.189-11.043-2.959l-15.126,8.733c-4.026-7.556-7.639-15.322-10.838-23.258l15.841-5.766  c4.196-1.527,6.36-6.167,4.832-10.362s-6.167-6.358-10.361-4.831l-15.855,5.771c-2.658-8.125-4.883-16.397-6.665-24.782  l18.919-3.336c4.396-0.775,7.333-4.967,6.558-9.365c-0.776-4.397-4.968-7.332-9.367-6.557l-18.938,3.339  c-1.207-8.449-1.964-16.983-2.257-25.571h17.395c4.465,0,8.084-3.618,8.084-8.084c0-4.466-3.62-8.084-8.084-8.084h-17.395  c0.293-8.587,1.05-17.121,2.258-25.571l18.932,3.338c0.474,0.084,0.946,0.124,1.413,0.124c3.848,0,7.261-2.76,7.952-6.681  c0.776-4.398-2.16-8.591-6.558-9.365l-18.91-3.334c1.783-8.384,4.007-16.657,6.666-24.782l15.764,5.738  c0.914,0.332,1.846,0.489,2.764,0.489c3.303,0,6.403-2.039,7.598-5.322c1.526-4.196-0.636-8.834-4.832-10.362l-15.75-5.732  c3.199-7.935,6.81-15.702,10.835-23.258l12.105,6.988c1.273,0.735,2.664,1.084,4.035,1.084c2.794,0,5.511-1.45,7.008-4.043  c2.232-3.866,0.908-8.811-2.959-11.043l-12.106-6.989c4.513-7.254,9.406-14.285,14.687-21.044l9.822,8.242  c1.516,1.272,3.359,1.892,5.192,1.892c2.307,0,4.598-0.982,6.197-2.888c2.869-3.421,2.424-8.52-0.996-11.389l-9.826-8.245  c3.061-3.415,6.215-6.756,9.482-10.002c12.421,12.257,23.515,25.852,33.044,40.555c23.73,36.81,37.233,79.788,38.355,124.068  c0.05,1.997,0.077,3.999,0.077,6.008c0,1.609-0.016,3.216-0.049,4.821c-0.012,0.583-0.036,1.164-0.051,1.746  c-0.027,1.02-0.052,2.04-0.092,3.058c-0.028,0.723-0.071,1.445-0.106,2.168c-0.042,0.875-0.08,1.75-0.132,2.624  c-0.047,0.798-0.109,1.592-0.164,2.389c-0.055,0.794-0.105,1.589-0.167,2.382c-0.068,0.854-0.149,1.705-0.225,2.558  c-0.066,0.732-0.126,1.465-0.198,2.196c-0.088,0.888-0.19,1.775-0.288,2.662c-0.077,0.693-0.148,1.386-0.231,2.078  c-0.108,0.908-0.23,1.812-0.348,2.718c-0.087,0.67-0.17,1.341-0.264,2.009c-0.128,0.922-0.269,1.841-0.409,2.76  c-0.098,0.648-0.192,1.297-0.295,1.943c-0.15,0.937-0.311,1.871-0.472,2.806c-0.108,0.627-0.212,1.256-0.326,1.883  c-0.17,0.947-0.354,1.893-0.536,2.838c-0.117,0.609-0.232,1.219-0.354,1.827c-0.192,0.957-0.396,1.912-0.599,2.868  c-0.127,0.594-0.251,1.188-0.383,1.781c-0.213,0.964-0.438,1.925-0.664,2.887c-0.136,0.58-0.269,1.16-0.411,1.738  c-0.236,0.971-0.482,1.941-0.73,2.909c-0.144,0.563-0.287,1.126-0.435,1.689c-0.259,0.982-0.528,1.961-0.799,2.939  c-0.151,0.544-0.301,1.09-0.456,1.633c-0.283,0.993-0.576,1.983-0.872,2.972c-0.156,0.524-0.313,1.048-0.473,1.57  c-0.309,1.008-0.627,2.014-0.951,3.018c-0.298,0.924-0.589,1.85-0.897,2.771c-1.416,4.234,0.866,8.815,5.098,10.232  c4.232,1.416,8.815-0.863,10.234-5.097c0.208-0.621,0.401-1.246,0.605-1.868c0.015-0.045,0.036-0.086,0.051-0.132  C499.545,335.082,499.634,334.783,499.73,334.486z M86.303,115.006c1.599,1.906,3.889,2.888,6.197,2.888  c1.833,0,3.678-0.621,5.192-1.892l9.823-8.242c5.282,6.758,10.174,13.79,14.687,21.045l-12.106,6.989  c-3.866,2.232-5.191,7.177-2.959,11.043c1.497,2.593,4.215,4.043,7.008,4.043c1.371,0,2.762-0.349,4.035-1.084l12.105-6.988  c4.025,7.556,7.636,15.322,10.835,23.258l-15.75,5.732c-4.196,1.527-6.358,6.167-4.832,10.362c1.195,3.282,4.295,5.322,7.597,5.322  c0.918,0,1.852-0.157,2.765-0.489l15.765-5.738c2.658,8.125,4.883,16.398,6.666,24.782l-18.911,3.334  c-4.397,0.775-7.333,4.967-6.558,9.365c0.692,3.922,4.102,6.681,7.953,6.681c0.466,0,0.939-0.04,1.413-0.124l18.932-3.338  c1.208,8.449,1.965,16.983,2.258,25.571h-17.395c-4.465,0-8.084,3.618-8.084,8.084c0,4.466,3.62,8.084,8.084,8.084h17.396  c-0.293,8.588-1.05,17.122-2.257,25.571l-18.938-3.339c-4.393-0.78-8.59,2.161-9.365,6.557c-0.775,4.398,2.161,8.591,6.558,9.365  l18.918,3.336c-1.783,8.385-4.008,16.657-6.666,24.782l-15.853-5.77c-4.194-1.521-8.834,0.637-10.362,4.831  c-1.527,4.196,0.636,8.834,4.832,10.362l15.84,5.766c-3.199,7.935-6.813,15.702-10.838,23.258l-15.125-8.732  c-3.865-2.23-8.811-0.909-11.043,2.959c-2.232,3.866-0.908,8.811,2.959,11.043l15.127,8.734c-4.513,7.253-9.41,14.282-14.692,21.04  l-13.534-11.353c-3.42-2.87-8.519-2.423-11.389,0.996c-2.87,3.421-2.424,8.52,0.996,11.389l13.535,11.357  c-3.186,3.553-6.472,7.028-9.88,10.397c-11.932-11.829-22.625-24.903-31.879-39.003c-24.201-37.074-37.987-80.505-39.12-125.241  c-0.05-1.993-0.077-3.992-0.077-5.996c0-2.009,0.027-4.011,0.077-6.008c1.121-44.223,14.588-87.149,38.262-123.927  c9.548-14.757,20.676-28.399,33.137-40.696c3.267,3.244,6.42,6.587,9.482,10.002l-9.826,8.245  C83.879,106.486,83.433,111.586,86.303,115.006z M402.461,84.955l-11.455-9.612c-3.421-2.87-8.519-2.423-11.389,0.996  c-2.869,3.421-2.424,8.52,0.996,11.389l11.431,9.592c-5.892,7.47-11.342,15.259-16.356,23.337l-12.912-7.455  c-3.866-2.23-8.811-0.909-11.043,2.959c-2.232,3.866-0.908,8.811,2.959,11.043l12.898,7.446c-2.974,5.547-5.755,11.215-8.332,17.006  c-1.301,2.923-2.523,5.869-3.71,8.826l-13.998-5.094c-4.196-1.522-8.836,0.636-10.362,4.831c-1.526,4.196,0.636,8.834,4.832,10.362  l13.976,5.087c-2.978,9.046-5.439,18.229-7.375,27.535l-14.649-2.583c-4.389-0.78-8.59,2.161-9.365,6.557  c-0.776,4.398,2.16,8.591,6.558,9.365l14.681,2.588c-1.331,9.363-2.154,18.831-2.447,28.392h-14.945  c-4.465,0-8.084,3.618-8.084,8.084c0,4.466,3.62,8.084,8.084,8.084H337.4c0.293,9.561,1.116,19.029,2.447,28.392l-14.681,2.589  c-4.396,0.775-7.333,4.968-6.558,9.365c0.693,3.922,4.104,6.681,7.953,6.681c0.467,0,0.938-0.04,1.414-0.124l14.649-2.583  c1.936,9.305,4.393,18.49,7.372,27.536l-13.972,5.085c-4.196,1.527-6.357,6.167-4.831,10.362c1.195,3.282,4.294,5.322,7.598,5.322  c0.918,0,1.851-0.157,2.764-0.489l13.995-5.094c1.223,3.049,2.487,6.088,3.832,9.102c2.543,5.697,5.287,11.272,8.214,16.73  l-12.899,7.447c-3.866,2.232-5.192,7.177-2.959,11.043c1.497,2.593,4.215,4.043,7.008,4.043c1.372,0,2.763-0.349,4.035-1.084  l12.91-7.454c5.014,8.079,10.469,15.864,16.359,23.334l-11.432,9.593c-3.42,2.869-3.865,7.969-0.996,11.389  c1.599,1.906,3.889,2.888,6.197,2.888c1.833,0,3.678-0.621,5.192-1.892l11.452-9.609c3.366,3.753,6.852,7.416,10.453,10.987  c-42.872,37.014-98.359,58.584-156.916,58.584c-59.942,0-114.818-22.104-156.906-58.59c3.599-3.569,7.083-7.228,10.446-10.979  l11.452,9.609c1.514,1.272,3.359,1.892,5.192,1.892c2.307,0,4.598-0.982,6.197-2.888c2.87-3.421,2.424-8.52-0.996-11.389  l-11.432-9.592c5.891-7.47,11.345-15.255,16.359-23.334l12.91,7.454c1.273,0.735,2.663,1.084,4.035,1.084  c2.794,0,5.511-1.45,7.008-4.043c2.232-3.866,0.908-8.811-2.959-11.043l-12.899-7.447c2.926-5.458,5.67-11.033,8.214-16.73  c1.345-3.014,2.609-6.052,3.833-9.102l13.996,5.094c0.913,0.332,1.845,0.489,2.764,0.489c3.302,0,6.403-2.039,7.597-5.322  c1.527-4.196-0.636-8.834-4.832-10.362l-13.972-5.085c2.978-9.046,5.436-18.23,7.372-27.536l14.649,2.583  c0.474,0.084,0.947,0.124,1.413,0.124c3.849,0,7.261-2.76,7.952-6.681c0.775-4.397-2.161-8.591-6.558-9.365l-14.68-2.588  c1.331-9.363,2.154-18.831,2.447-28.392h14.945c4.465,0,8.084-3.618,8.084-8.084s-3.62-8.084-8.084-8.084h-14.945  c-0.293-9.561-1.116-19.029-2.447-28.392l14.682-2.589c4.397-0.775,7.333-4.967,6.558-9.365c-0.775-4.397-4.966-7.331-9.365-6.557  l-14.649,2.583c-1.936-9.305-4.397-18.489-7.375-27.535l13.975-5.087c4.196-1.527,6.359-6.167,4.832-10.362  c-1.527-4.195-6.166-6.355-10.362-4.831l-13.998,5.095c-1.187-2.957-2.409-5.904-3.71-8.826c-2.577-5.792-5.359-11.459-8.332-17.006  l12.898-7.446c3.866-2.232,5.191-7.177,2.959-11.043c-2.232-3.867-7.177-5.189-11.043-2.959l-12.912,7.455  c-5.014-8.079-10.464-15.867-16.356-23.338l11.431-9.592c3.42-2.869,3.866-7.969,0.996-11.389c-2.869-3.42-7.969-3.865-11.389-0.996  l-11.456,9.613c-3.23-3.602-6.571-7.123-10.018-10.558C141.552,38.131,196.259,16.17,256,16.17s114.448,21.961,156.48,58.228  C409.032,77.833,405.693,81.353,402.461,84.955z"/>
<g>
</g>
<g>
</g>
<g>
</g>
<g>
</g>
<g>
</g>
<g>
</g>
<g>
</g>
<g>
</g>
<g>
</g>
<g>
</g>
<g>
</g>
<g>
</g>
<g>
</g>
<g>
</g>
<g>
</g>
</svg>
